<?xml version="1.0" encoding="utf-8"?>
<!-- Generator: Adobe Illustrator 28.3.0, SVG Export Plug-In . SVG Version: 6.00 Build 0)  -->
<svg version="1.1" id="Layer_1" xmlns="http://www.w3.org/2000/svg" xmlns:xlink="http://www.w3.org/1999/xlink" x="0px" y="0px"
	 viewBox="0 0 309.1 309.1" style="enable-background:new 0 0 309.1 309.1;" xml:space="preserve">
<style type="text/css">
	.st0{fill:#005CB9;}
	.st1{fill:#FFFFFF;}
</style>
<g>
	<path class="st0" d="M68.3,120.3c-29.2,0-52.8,22.1-52.8,49.4c0,12.3,4.8,23.6,12.8,32.2c-2.4,6.4-6.8,12-12.5,15.9
		c3.6,1.2,7.5,1.8,11.6,1.8c6.9,0,13.4-1.8,18.9-5c6.7,2.9,14.2,4.5,22.1,4.5c29.2,0,52.8-22.1,52.8-49.4
		C121.1,142.5,97.5,120.3,68.3,120.3z"/>
	<g>
		<path class="st1" d="M99.3,157.9c0-3.8-3.4-7-7.5-7H44.8c-4.1,0-7.5,3.1-7.5,7v24.3c0,3.8,3.4,7,7.5,7h47.1c4.1,0,7.5-3.1,7.5-7
			L99.3,157.9L99.3,157.9z"/>
		<g>
			<rect x="39.8" y="168.1" class="st0" width="5.7" height="3.9"/>
			<rect x="39.8" y="159.2" class="st0" width="5.7" height="3.9"/>
			<rect x="39.8" y="176.9" class="st0" width="5.7" height="3.9"/>
		</g>
		<g>
			<rect x="91.2" y="168.1" class="st0" width="5.7" height="3.9"/>
			<rect x="91.2" y="159.2" class="st0" width="5.7" height="3.9"/>
			<rect x="91.2" y="176.9" class="st0" width="5.7" height="3.9"/>
		</g>
		<path class="st0" d="M80.3,167.2c2.8,1.6,2.8,4.1,0,5.7l-15.7,8.6c-2.8,1.6-5.1,0.3-5.1-2.8v-17.3c0-3.1,2.3-4.3,5.1-2.8
			L80.3,167.2z"/>
	</g>
</g>
<g>
	<path class="st1" d="M178.7,188.7c0,0.6-0.3,0.9-0.8,0.9h-10c-0.5,0-0.8-0.3-0.8-1c0-1.9,0.1-4.7,0.2-8.5c0.1-3.8,0.2-6.6,0.2-8.5
		c0-0.5-0.1-0.8-0.3-0.9c-0.2,0.1-1.5,3-3.8,8.7c-1.4,3.3-2.7,6.7-4.1,10c-0.2,0.4-0.4,0.7-0.7,0.8c-0.1,0-0.5,0-1.1,0
		c-1,0-1.6-0.2-1.7-0.6c-1-2.1-2.3-5.1-4-9c-1.8-4.2-3.1-7.2-4-9.1c0-0.1-0.1-0.2-0.3-0.3c-0.1,0.2-0.2,0.4-0.2,0.8
		c0,1.8,0,4.6,0.1,8.3c0.1,3.7,0.1,6.4,0.1,8.3c0,0.7-0.3,1-0.8,1h-9.4c-0.4,0-0.6-0.1-0.7-0.2c-0.1-0.1-0.1-0.3-0.1-0.6
		c0-2,0.1-5.1,0.3-9.2s0.3-7.2,0.3-9.2c0-2.2-0.1-6.3-0.3-12.3c0-1.6-0.1-3.9-0.3-7l0-0.5c0-0.4,0.4-0.6,1.2-0.6c1,0,2.6,0,4.7-0.1
		c2.1-0.1,3.6-0.1,4.7-0.1c0.2,0,0.5,0.4,0.9,1.2l8.2,18.1c0.6,1.2,1.1,1.8,1.5,1.8c0.2,0,0.6-0.7,1.3-2.1c1.9-3.9,4.7-9.9,8.4-17.8
		c0.3-0.7,0.7-1.1,1-1.1c0.5,0,1.4,0,2.5,0.1c1.1,0.1,1.9,0.1,2.5,0.1c0.5,0,1.2,0,2.2-0.1s1.7-0.1,2.2-0.1c0.6,0,0.8,0.2,0.8,0.7
		c0,2.2-0.1,5.5-0.2,9.9c-0.2,4.4-0.2,7.7-0.2,9.9c0,2,0.1,5.1,0.3,9.2C178.6,183.6,178.7,186.6,178.7,188.7z"/>
	<path class="st1" d="M209.6,174.2c0,1.9-0.6,3-1.8,3.2c-0.2,0-2.2,0.2-5.8,0.6c-2.2,0.2-5.5,0.5-9.9,0.9c0.3,1.2,1.1,2.2,2.4,2.8
		c1.1,0.5,2.3,0.8,3.7,0.8c1.7,0,3.4-0.5,5-1.4c0.7-0.5,1.4-0.9,2.1-1.4c0.4,0.2,1.1,1.1,2,2.9c0.9,1.7,1.4,2.8,1.4,3.3
		c0,0.1-0.1,0.3-0.4,0.6c-2.3,2.5-5.9,3.7-10.7,3.7c-4.5,0-8.1-1.3-10.8-3.9c-2.8-2.7-4.2-6.2-4.2-10.6c0-4.3,1.3-7.9,3.8-10.6
		c2.6-2.9,6-4.3,10.3-4.3c3.6,0,6.7,1.3,9.2,3.9C208.3,167.5,209.6,170.6,209.6,174.2z M199.7,172.5c0-1.2-0.4-2.2-1.2-3.1
		c-0.8-0.9-1.8-1.3-3-1.3c-1.2,0-2.2,0.5-2.9,1.5c-0.7,0.9-1.1,2-1.1,3.2c0,0.5,0.3,0.8,0.8,0.8c1.4,0,3.6-0.2,6.5-0.6
		C199.4,172.9,199.7,172.7,199.7,172.5z"/>
	<path class="st1" d="M238.5,174.2c0,1.9-0.6,3-1.8,3.2c-0.2,0-2.2,0.2-5.8,0.6c-2.2,0.2-5.5,0.5-9.9,0.9c0.3,1.2,1.1,2.2,2.4,2.8
		c1.1,0.5,2.3,0.8,3.7,0.8c1.7,0,3.4-0.5,5-1.4c0.7-0.5,1.4-0.9,2.1-1.4c0.4,0.2,1.1,1.1,2,2.9c0.9,1.7,1.4,2.8,1.4,3.3
		c0,0.1-0.1,0.3-0.4,0.6c-2.3,2.5-5.9,3.7-10.7,3.7c-4.5,0-8.1-1.3-10.8-3.9c-2.8-2.7-4.2-6.2-4.2-10.6c0-4.3,1.3-7.9,3.8-10.6
		c2.6-2.9,6-4.3,10.3-4.3c3.6,0,6.7,1.3,9.2,3.9C237.3,167.5,238.5,170.6,238.5,174.2z M228.7,172.5c0-1.2-0.4-2.2-1.2-3.1
		c-0.8-0.9-1.8-1.3-3-1.3c-1.2,0-2.2,0.5-2.9,1.5c-0.7,0.9-1.1,2-1.1,3.2c0,0.5,0.3,0.8,0.8,0.8c1.4,0,3.6-0.2,6.5-0.6
		C228.4,172.9,228.7,172.7,228.7,172.5z"/>
	<path class="st1" d="M260.5,181.3c0,0.6-0.1,1.4-0.2,2.6c-0.1,1.1-0.2,2-0.2,2.5c0,0.5-0.1,0.9-0.2,1c-0.1,0.2-0.4,0.4-0.9,0.6
		c-2.4,1.3-5.1,2-8.1,2c-5.4,0-8.1-2.1-8.1-6.2c0-1.2,0-3.1,0.1-5.6c0.1-2.5,0.1-4.4,0.1-5.6c0-0.8-0.5-1.2-1.4-1.2
		c-0.1,0-0.2,0-0.4,0c-0.2,0-0.3,0-0.4,0c-0.7,0-1.1-0.3-1.1-0.8c0-0.3,0-0.8,0.1-1.4c0-0.6,0.1-1.1,0.1-1.4c0-0.4,0-1-0.1-1.8
		c0-0.8-0.1-1.4-0.1-1.8c0-0.4,0.6-0.6,1.8-0.6c0.7,0,1-0.2,1.1-0.6c0.1-0.7,0.2-1.8,0.1-3.4c-0.1-2.4-0.1-3.6-0.1-3.5
		c0-2.2,0.2-3.3,0.6-3.3c0.5,0,1.2,0.1,2.2,0.3c1.1,0.2,1.8,0.4,2.2,0.4c1,0.1,2.4,0.3,4.3,0.5c0.5,0,0.7,0.2,0.7,0.5
		c0,0.8-0.1,1.9-0.2,3.4c-0.1,1.5-0.2,2.7-0.2,3.4c0,0.9,0.3,1.4,0.8,1.4c0.7,0,1.7,0,3-0.1s2.3-0.1,3-0.1c0.4,0,0.6,0.1,0.6,0.4
		c0,0.4,0,1.1-0.1,1.9c-0.1,0.9-0.1,1.5-0.1,1.9c0,0.5,0,1.1,0,2c0,0.9,0,1.5,0,2c0,0.4-0.3,0.6-0.8,0.6c-0.4,0-1,0-1.9,0
		s-1.5,0-1.9,0h-2.1c-0.3,0-0.4,0.4-0.4,1.2c0,0.5,0,1.1,0,2c0,0.9,0,1.6,0,2c0,1.6,0.2,2.7,0.5,3.3c0.5,0.8,1.5,1.2,3,1.2
		c0.5,0,1.1-0.1,2-0.3c0.9-0.2,1.5-0.3,1.8-0.3C260.3,180.7,260.5,180.9,260.5,181.3z"/>
	<path class="st1" d="M294.8,185.8c0,1.8-0.1,2.9-0.3,3.3c-0.2,0.4-0.8,0.6-1.9,0.6c-0.2,0-0.5,0-1.1,0c-0.6,0-1,0-1.4,0
		c-0.4,0-1,0-1.7-0.1c-0.8,0-1.3-0.1-1.7-0.1c-0.3,0-1.7-1.8-4.1-5.4c-2.4-3.6-3.7-5.4-3.8-5.4c-0.4,0.3-1.7,2.2-4.1,5.7
		c-2.2,3.3-3.5,5-3.9,5.2c-0.3,0.1-1,0.1-2.1,0.1c-3.9,0-5.8-0.2-5.8-0.6s0-1-0.1-1.7c0-0.7-0.1-1.3-0.1-1.6c0-2.3,0.1-3.7,0.4-4.1
		c0,0,1.6-2.1,4.7-6.2c2.5-3.3,3.8-5.2,3.8-5.7s-1.2-2.3-3.8-5.6c-1.6-2-3.1-4-4.7-6.1c-0.2-0.2-0.3-0.6-0.3-1.2c0-0.4,0-0.9,0-1.6
		c0.1-0.8,0.1-1.3,0.1-1.4c0-0.4,0-1-0.1-1.7c-0.1-0.8-0.1-1.4-0.1-1.7c0-0.4,0.3-0.5,1-0.5c0.4,0,1.1,0,1.9,0.1
		c0.8,0.1,1.5,0.1,1.9,0.1c0.4,0,0.9,0,1.7-0.1s1.3-0.1,1.6-0.1c0.3,0,1.7,1.8,4.1,5.5c2.4,3.7,3.7,5.5,3.8,5.5
		c0.4-0.2,1.8-2.1,4.1-5.8c2.3-3.5,3.6-5.2,3.9-5.2h6.7c0.7,0,1,0.2,1,0.5v6.9c0,0.5-1.5,2.6-4.4,6.4s-4.4,5.8-4.4,6
		c0,0.3,1.3,2.2,3.8,5.6c3,4,4.6,6,4.7,6.2C294.7,181.9,294.8,183.3,294.8,185.8z"/>
</g>
</svg>
